<?xml version="1.0" encoding="utf-8"?>
<!-- Generator: Adobe Illustrator 16.0.0, SVG Export Plug-In . SVG Version: 6.00 Build 0)  -->
<!DOCTYPE svg PUBLIC "-//W3C//DTD SVG 1.1//EN" "http://www.w3.org/Graphics/SVG/1.1/DTD/svg11.dtd">
<svg version="1.1" id="Layer_1" xmlns="http://www.w3.org/2000/svg" xmlns:xlink="http://www.w3.org/1999/xlink" x="0px" y="0px"
	 width="500px" height="500px" viewBox="0 0 500 500" enable-background="new 0 0 500 500" xml:space="preserve">
<path fill-rule="evenodd" clip-rule="evenodd" fill="#000000" d="M298.473,332.997c0-2.802,0-5.242,0-8.212
	c-14.722,0-29.174,0.015-43.626-0.003c-19.157-0.023-38.316,0.072-57.472-0.166c-10.302-0.129-18.292-7.216-20.328-17.286
	c-1.853-9.163,3.034-19.079,12.012-22.986c3.381-1.472,7.402-2.037,11.135-2.051c40.813-0.139,81.629,0.009,122.443-0.161
	c9.123-0.038,15.375,4.223,21.629,10.393c25.26,24.919,50.955,49.397,76.488,74.041c3.596,3.471,6.904,7.313,10.838,10.345
	c6.215,4.787,8.258,10.58,8.043,18.449c-0.553,20.143-0.186,40.312-0.184,60.47c0,2.427,0,4.854,0,8.481
	c-9.523-9.161-17.688-17.688-26.564-25.398c-13.682-11.885-27.795-23.277-41.836-34.744c-8.523-6.962-18.785-9.397-29.422-9.31
	c-23.133,0.192-46.261,1.237-69.394,1.434c-28.321,0.242-56.652-0.366-84.968,0.079c-12.632,0.199-23.001-4.502-31.481-12.761
	c-29.835-29.058-59.207-58.59-88.763-87.933c-6.604-6.557-8.228-14.462-5.22-22.947c2.912-8.216,9.268-12.885,18.003-13.75
	c6.879-0.682,12.596,2,17.604,6.694c19.688,18.456,39.46,36.825,59.202,55.224c3.777,3.521,7.468,7.144,11.396,10.486
	c1.268,1.08,3.166,2.005,4.778,2.009c41.318,0.085,82.636,0.04,123.953,0.002C297.211,333.396,297.681,333.186,298.473,332.997z"/>
<rect x="131.259" y="43.322" fill="#000000" width="55.921" height="55.921"/>
<rect x="209.549" y="43.322" fill="#000000" width="55.921" height="55.921"/>
<rect x="287.838" y="43.322" fill="#000000" width="55.922" height="55.921"/>
<rect x="131.539" y="121.612" fill="#000000" width="55.921" height="55.921"/>
<rect x="209.828" y="121.612" fill="#000000" width="55.922" height="55.921"/>
<rect x="288.117" y="121.612" fill="#000000" width="55.922" height="55.921"/>
<rect x="131.679" y="199.901" fill="#000000" width="55.921" height="55.921"/>
<rect x="209.968" y="199.901" fill="#000000" width="55.92" height="55.921"/>
<rect x="288.258" y="199.901" fill="#000000" width="55.92" height="55.921"/>
</svg>
