<svg xmlns="http://www.w3.org/2000/svg" width="80" height="80" version="1.0">
  <path d="M13.729596 24.795111 39.992685 9.6807476 66.157057 24.809417l-.04462 30.318064-26.191422 15.14892-26.22593-15.148934.03451-30.332356z" style="fill:#eeeeec;fill-opacity:1;stroke:none"/>
  <path d="M39.993966-.09612554C17.859833-.09612554-.00000397 17.808247-.00000397 39.942391c0 22.134117 17.77347797 39.934093 39.90761097 39.934093 22.134135 0 40.061948-17.730957 40.061948-39.865074 0-22.134144-17.807903-40.11362986-39.942037-40.11362986l-.03355.006149v-.00005466zm-.003 9.09336654c17.105382 0 30.902022 13.839762 30.902022 30.94515 0 17.105361-13.79664 30.953772-30.902022 30.953772-17.105379 0-30.9882811-13.848411-30.9882811-30.953772 0-17.105388 13.8829021-30.94515 30.9882811-30.94515z" style="fill:#eeeeec;fill-opacity:1;stroke:none"/>
  <path d="M65.949943 23.183874c-2.050528-3.166627-4.490568-5.769025-7.544979-8.04707-4.831728-3.603588-10.653526-5.7136712-16.716327-6.0587518l-1.364598-.077682-.02975-4.5232831c-.02495-3.79622792-.0042-4.53314864.129782-4.58451309.251493-.0965116 3.605899.16451929 5.358349.41696895 2.342625.33745585 4.392425.83043974 6.822993 1.64095694 2.446335.8157642 3.877648 1.4213291 6.068102 2.5673071 5.214068 2.7278638 9.766394 6.614045 13.383004 11.424663 1.038002 1.380677 2.461217 3.569044 2.413022 3.71032-.03266.09572-7.678242 4.530539-7.802979 4.526111-.04069-.0014-.363209-.449203-.716633-.995027h.000014z" style="fill:#ddda45"/>
  <path d="M70.856922 57.49716c-2.032688-1.181068-3.739958-2.215682-3.793941-2.299144-.06491-.100365.113218-.573891.525855-1.397963 4.365337-8.717896 4.367386-19.015355.0056-27.726392-.340162-.679312-.595452-1.295098-.567323-1.36838.06199-.161581 7.428638-4.415457 7.678368-4.43389.517881-.03825 2.924877 5.466932 3.834092 8.769137 1.05977 3.849055 1.458032 6.818956 1.460423 10.890781.0025 4.053023-.396253 7.025739-1.460423 10.890781-.881257 3.200748-3.281435 8.733255-3.818173 8.801126-.09277.01175-1.83178-.945002-3.864454-2.126056h.000014-.000041z" style="fill:#e7762a"/>
  <path d="M4.2469878 57.926946C2.3881015 54.18748 1.197441 50.545072.52891599 46.552774c-.38310859-2.287843-.51736808-4.03418-.51736808-6.72955 0-5.273923.95686142-10.197805 2.91811589-15.016211.499674-1.227596 2.0075193-4.344471 2.1907356-4.52849.074281-.07459 7.4119016 4.042652 7.7836696 4.367537.05468.04778-.182526.64086-.527134 1.317944-1.621661 3.18625-2.687854 6.740481-3.1665232 10.555812-.2054373 1.637472-.1759277 5.490599.055156 7.202447.5054309 3.744112 1.5859892 7.247976 3.1852152 10.328532.409168.788162.490055 1.030199.379987 1.137-.239306.232227-7.4540092 4.359611-7.6206218 4.359611-.089308 0-.5068069-.702418-.9631607-1.62046z" style="fill:#e02826"/>
  <path d="M9.5097262 22.022606c-2.0600274-1.188215-3.8127209-2.227597-3.8948753-2.309761-.1233471-.123335-.0187667-.355329.6002795-1.331705C11.666589 9.7831486 20.463999 3.480379 30.411521 1.045999 33.198285.3640229 35.82888-.00018784 38.447719-.06661045l1.194023-.03028029V9.0004248l-1.364599.078816c-5.530221.3193779-10.771156 2.0611792-15.317406 5.0906702-2.026765 1.350575-3.179294 2.290234-4.813655 3.924591-1.590071 1.590071-2.555587 2.766712-3.828489 4.665625-.503103.750531-.947949 1.377713-.988542 1.393741-.0406.01602-1.759292-.943034-3.8193248-2.131249v-.000013z" style="fill:#3d9c46"/>
  <path d="M9.3511059 57.817795c2.0391781-1.169836 3.7888151-2.131058 3.8880871-2.136086.119373-.006.440395.384994.947743 1.154395 5.367253 8.139428 14.28409 13.289934 24.008956 13.868047.758388.04506 1.419321.131861 1.468717.192873.108933.134471.109575 8.641116 0 8.866606-.225817.467623-6.196952-.200457-9.511346-1.064156-3.863266-1.006738-6.634405-2.146785-10.161909-4.180621-3.511249-2.02438-5.886339-3.856037-8.70148-6.71016-2.3312983-2.363557-5.9225017-7.208432-5.7129117-7.707196.036207-.08621 1.7342861-1.113866 3.7734467-2.283689l-.0000068.000014.0006832-.000027z" style="fill:#eeeeec"/>
  <path d="M40.323849 79.886309c-.03265-.08512-.04599-2.150366-.02958-4.589446l.02979-4.43467 1.364598-.0788c5.525766-.319132 10.776327-2.064581 15.321331-5.093266 2.011202-1.340217 3.168577-2.284851 4.807732-3.924018 1.595322-1.595331 2.565563-2.776591 3.830495-4.663602.5031-.750531.949528-1.378246.992074-1.394916.0934-.03661 7.49681 4.228337 7.710112 4.441624.124086.124087.0252.346652-.573905 1.291532-3.803087 5.998217-9.395317 11.059809-15.723264 14.231328-5.198612 2.605527-10.271124 3.934293-16.391834 4.293899-1.025296.06026-1.289888.04449-1.337529-.07966h-.000021z" style="fill:#304a96"/>
  <path d="m39.991104 14-22.54034 12.972086v.0268l7.665324 4.422302v-.0268l10.586723-6.084015v38.21941l4.207887 2.438967 4.3955-2.546174v-38.0586l10.452714 6.030412v.08041l7.665324-4.422302v-.08041L39.991104 14z" style="fill:#000;fill-opacity:1;stroke:none"/>
</svg>
