<?xml version="1.0" encoding="utf-8"?>
<!-- Generator: Adobe Illustrator 16.0.0, SVG Export Plug-In . SVG Version: 6.00 Build 0)  -->
<!DOCTYPE svg PUBLIC "-//W3C//DTD SVG 1.1//EN" "http://www.w3.org/Graphics/SVG/1.1/DTD/svg11.dtd">
<svg version="1.1" id="Layer_1" xmlns="http://www.w3.org/2000/svg" xmlns:xlink="http://www.w3.org/1999/xlink" x="0px" y="0px"
	 width="500px" height="500px" viewBox="0 0 500 500" enable-background="new 0 0 500 500" xml:space="preserve">
<rect x="32.565" y="107.062" transform="matrix(0.7071 -0.7071 0.7071 0.7071 -74.4511 74.3862)" fill="#000000" width="40" height="40"/>
<rect x="72.164" y="67.464" transform="matrix(0.7071 -0.7071 0.7071 0.7071 -34.8528 90.788)" fill="#000000" width="39.999" height="40.001"/>
<rect x="111.761" y="27.866" transform="matrix(0.7071 -0.7071 0.7071 0.7071 4.746 107.1909)" fill="#000000" width="39.999" height="40.001"/>
<rect x="72.305" y="146.519" transform="matrix(0.7071 -0.7071 0.7071 0.7071 -90.7112 114.0419)" fill="#000000" width="40.001" height="40.001"/>
<rect x="111.903" y="106.922" transform="matrix(0.7071 -0.7071 0.7071 0.7071 -51.1134 130.441)" fill="#000000" width="40.001" height="39.999"/>
<rect x="151.501" y="67.323" transform="matrix(0.7071 -0.7071 0.7071 0.7071 -11.5154 146.8459)" fill="#000000" width="40" height="40"/>
<rect x="111.974" y="186.046" transform="matrix(0.7071 -0.7071 0.7071 0.7071 -107.0435 153.6732)" fill="#000000" width="39.999" height="40.001"/>
<rect x="151.572" y="146.448" transform="matrix(0.7071 -0.7071 0.7071 0.7071 -67.4445 170.067)" fill="#000000" width="39.999" height="40.001"/>
<rect x="191.17" y="106.85" transform="matrix(0.7071 -0.7071 0.7071 0.7071 -27.8474 186.4691)" fill="#000000" width="40.001" height="40.001"/>
<rect x="32.458" y="341.045" transform="matrix(0.7071 -0.7071 0.7071 0.7071 -239.9365 142.8461)" fill="#000000" width="40.001" height="40.001"/>
<rect x="72.056" y="301.447" transform="matrix(0.7071 -0.7071 0.7071 0.7071 -200.3379 159.248)" fill="#000000" width="39.999" height="40.001"/>
<rect x="111.654" y="261.849" transform="matrix(0.7071 -0.7071 0.7071 0.7071 -160.7393 175.6498)" fill="#000000" width="39.999" height="40.001"/>
<rect x="72.197" y="380.502" transform="matrix(0.7071 -0.7071 0.7071 0.7071 -256.1935 182.498)" fill="#000000" width="40.001" height="40.001"/>
<rect x="111.796" y="340.905" transform="matrix(0.7071 -0.7071 0.7071 0.7071 -216.5901 198.8882)" fill="#000000" width="40" height="39.998"/>
<rect x="151.394" y="301.307" transform="matrix(0.7071 -0.7071 0.7071 0.7071 -176.9962 215.2961)" fill="#000000" width="39.999" height="39.999"/>
<rect x="111.867" y="420.029" transform="matrix(0.7071 -0.7071 0.7071 0.7071 -272.525 222.1251)" fill="#000000" width="39.998" height="40"/>
<rect x="151.465" y="380.43" transform="matrix(0.7071 -0.7071 0.7071 0.7071 -232.9237 238.5201)" fill="#000000" width="39.999" height="40.001"/>
<rect x="191.062" y="340.833" transform="matrix(0.7071 -0.7071 0.7071 0.7071 -193.3268 254.9223)" fill="#000000" width="40.001" height="40.001"/>
<path fill="#000000" d="M443.368,249.918c4.93-76.658,73.936-190.163-58.732-190.163c-111.139,0-118.596,96.192-118.596,190.163
	c0,84.969,4.043,186.586,106.525,190.163C515.438,445.067,448.847,335.106,443.368,249.918z"/>
</svg>
