<?xml version="1.0" encoding="utf-8"?>
<!-- Generator: Adobe Illustrator 16.0.0, SVG Export Plug-In . SVG Version: 6.00 Build 0)  -->
<!DOCTYPE svg PUBLIC "-//W3C//DTD SVG 1.1//EN" "http://www.w3.org/Graphics/SVG/1.1/DTD/svg11.dtd">
<svg version="1.1" id="Layer_1" xmlns="http://www.w3.org/2000/svg" xmlns:xlink="http://www.w3.org/1999/xlink" x="0px" y="0px"
	 width="500px" height="500px" viewBox="0 0 500 500" enable-background="new 0 0 500 500" xml:space="preserve">
<g>
	<path fill-rule="evenodd" clip-rule="evenodd" fill="#000000" d="M251.175,344.902c-15.664,0-31.329-0.094-46.992,0.076
		c-3.29,0.035-4.977-0.713-6.058-4.1c-9.585-30.042-19.315-60.038-29.172-89.992c-1.001-3.044-0.645-4.628,2.023-6.55
		c25.664-18.486,51.241-37.095,76.758-55.784c2.453-1.798,4.058-1.814,6.521-0.01c25.783,18.888,51.632,37.688,77.563,56.373
		c2.327,1.678,2.853,3.131,1.999,5.73c-9.939,30.281-19.854,60.571-29.621,90.908c-0.918,2.852-2.357,3.414-5.029,3.397
		C283.17,344.851,267.172,344.901,251.175,344.902z"/>
	<path fill-rule="evenodd" clip-rule="evenodd" fill="#000000" d="M81.158,360.791c2.046,0,3.525,0,5.004,0
		c32.329,0,64.657,0.049,96.985-0.069c3.509-0.013,5.154,0.878,6.304,4.478c9.896,30.991,20.055,61.898,30.126,92.833
		c0.404,1.242,0.718,2.514,1.195,4.201c-1.441,0.171-2.677,0.443-3.913,0.444c-32.828,0.023-65.656-0.002-98.484,0.057
		c-2.743,0.005-4.47-0.372-5.472-3.507c-10.209-31.938-20.604-63.815-30.944-95.711C81.759,362.897,81.591,362.269,81.158,360.791z"
		/>
	<path fill-rule="evenodd" clip-rule="evenodd" fill="#000000" d="M420.871,361.117c-4.331,13.301-8.589,26.358-12.836,39.42
		c-6.31,19.401-12.652,38.793-18.867,58.225c-0.783,2.448-1.482,4.007-4.57,3.997c-33.304-0.105-66.607-0.067-99.91-0.084
		c-0.78-0.001-1.56-0.191-2.925-0.369c2.513-7.876,4.885-15.417,7.325-22.936c8.092-24.925,16.252-49.826,24.253-74.778
		c0.905-2.821,2.142-3.88,5.199-3.869c32.97,0.112,65.94,0.068,98.911,0.083C418.431,360.807,419.41,360.979,420.871,361.117z"/>
	<path fill-rule="evenodd" clip-rule="evenodd" fill="#000000" d="M62.463,303.498c-4.519-13.747-8.896-26.934-13.185-40.148
		c-6.194-19.087-12.274-38.211-18.54-57.274c-0.828-2.521-0.974-4.133,1.479-5.901c27.521-19.853,54.961-39.816,82.432-59.739
		c0.253-0.184,0.618-0.213,1.529-0.508c10.893,33.512,21.784,67.021,32.747,100.749C120.095,261.623,91.477,282.417,62.463,303.498z
		"/>
	<path fill-rule="evenodd" clip-rule="evenodd" fill="#000000" d="M337.155,103.893c-12.396,9.027-24.196,17.632-36.01,26.219
		c-15.603,11.342-31.235,22.643-46.801,34.035c-2.063,1.51-3.604,2.317-6.104,0.488c-26.978-19.739-54.042-39.359-81.096-58.996
		c-0.669-0.486-1.478-0.782-2.723-1.426c15.37-11.182,29.726-21.637,44.095-32.073c13.05-9.479,26.144-18.896,39.146-28.441
		c2.081-1.527,3.582-2.332,6.09-0.498C281.264,63.328,308.865,83.335,337.155,103.893z"/>
	<path fill-rule="evenodd" clip-rule="evenodd" fill="#000000" d="M386.494,139.75c19.439,14.112,38.268,27.78,57.094,41.45
		c8.614,6.255,17.301,12.416,25.755,18.88c1.295,0.99,2.515,3.714,2.074,5.095c-10.228,32.07-20.688,64.065-31.114,96.071
		c-0.19,0.585-0.5,1.131-0.938,2.104c-13.7-9.934-27.148-19.667-40.578-29.427c-13.991-10.167-28.008-20.3-41.874-30.636
		c-1.331-0.992-2.736-3.651-2.317-4.967C365.018,205.616,375.68,172.989,386.494,139.75z"/>
	<path fill-rule="evenodd" clip-rule="evenodd" fill="#000000" d="M372.915,129.904c-10.972,33.757-21.873,67.301-32.916,101.279
		c-25.269-18.359-50.017-36.34-75.39-54.775c28.909-21.016,57.462-41.771,86.146-62.622
		C358.241,119.231,365.475,124.493,372.915,129.904z"/>
	<path fill-rule="evenodd" clip-rule="evenodd" fill="#000000" d="M205.36,360.961c30.709,0,61.142,0,92.402,0
		c-2.201,6.848-4.275,13.36-6.388,19.86c-8.407,25.865-16.896,51.705-25.156,77.617c-1.051,3.297-2.494,4.478-5.923,4.334
		c-6.315-0.266-12.658,0.098-18.97-0.206c-1.492-0.071-3.804-1.449-4.228-2.728c-10.741-32.428-21.282-64.923-31.842-97.411
		C205.164,362.142,205.295,361.781,205.36,360.961z"/>
	<path fill-rule="evenodd" clip-rule="evenodd" fill="#000000" d="M154.121,256.671c9.645,29.699,19.055,58.677,28.652,88.231
		c-2.158,0-3.623,0-5.088,0c-32.322,0-64.646-0.081-96.967,0.105c-3.926,0.022-5.588-1.302-6.579-4.865
		c-1.644-5.911-3.82-11.676-5.425-17.596c-0.366-1.351,0.156-3.803,1.157-4.537C97.648,297.64,125.539,277.427,154.121,256.671z"/>
	<path fill-rule="evenodd" clip-rule="evenodd" fill="#000000" d="M237.396,176.399c-25.039,18.193-49.65,36.077-74.886,54.413
		c-2.38-7.353-4.586-14.184-6.803-21.011c-8.25-25.418-16.44-50.855-24.841-76.224c-1.021-3.084-0.643-4.775,2.055-6.603
		c6.058-4.103,11.897-8.528,18.316-13.178C179.777,134.534,208.398,155.329,237.396,176.399z"/>
	<path fill-rule="evenodd" clip-rule="evenodd" fill="#000000" d="M319.951,344.567c9.437-29.067,18.835-58.019,28.414-87.527
		c9.354,6.802,18.334,13.343,27.324,19.87c18.431,13.38,36.829,26.805,55.34,40.072c2.605,1.867,3.309,3.441,2.11,6.561
		c-2.255,5.87-4.094,11.913-5.845,17.959c-0.72,2.484-1.812,3.459-4.481,3.451c-33.617-0.088-67.234-0.066-100.852-0.084
		C321.474,344.869,320.985,344.728,319.951,344.567z"/>
</g>
</svg>
