<?xml version="1.0" encoding="utf-8"?>
<!-- Generator: Adobe Illustrator 16.0.0, SVG Export Plug-In . SVG Version: 6.00 Build 0)  -->
<!DOCTYPE svg PUBLIC "-//W3C//DTD SVG 1.1//EN" "http://www.w3.org/Graphics/SVG/1.1/DTD/svg11.dtd">
<svg version="1.1" id="Layer_1" xmlns="http://www.w3.org/2000/svg" xmlns:xlink="http://www.w3.org/1999/xlink" x="0px" y="0px"
	 width="500px" height="500px" viewBox="0 0 500 500" enable-background="new 0 0 500 500" xml:space="preserve">
<polygon fill="#000000" points="250.096,279.719 292.691,450.002 207.491,450.002 "/>
<polygon fill="#000000" points="279.823,250.008 449.989,207.482 449.989,292.524 "/>
<polygon fill="#000000" points="250.096,220.298 207.541,50.222 292.637,50.222 "/>
<polygon fill="#000000" points="220.368,250.008 49.989,292.579 49.989,207.429 "/>
<polyline fill="#000000" points="272.13,227.762 319.764,50.001 449.989,50.001 449.989,180.151 449.989,180.565 272.13,228.208 "/>
<polyline fill="#000000" points="227.836,227.996 49.989,180.362 49.989,50.222 180.183,50.222 180.621,50.222 228.283,227.996 "/>
<polyline fill="#000000" points="272.13,272.246 319.764,450.002 449.989,450.002 449.989,319.88 449.989,319.437 272.13,271.813 
	"/>
<polyline fill="#000000" points="227.836,272.029 49.989,319.662 49.989,449.784 180.183,449.784 180.621,449.784 228.283,272.029 
	"/>
</svg>
