<?xml version="1.0" encoding="UTF-8" standalone="no"?>
<!-- Created with Inkscape (http://www.inkscape.org/) -->

<svg
   xmlns:dc="http://purl.org/dc/elements/1.1/"
   xmlns:cc="http://creativecommons.org/ns#"
   xmlns:rdf="http://www.w3.org/1999/02/22-rdf-syntax-ns#"
   xmlns:svg="http://www.w3.org/2000/svg"
   xmlns="http://www.w3.org/2000/svg"
   xmlns:sodipodi="http://sodipodi.sourceforge.net/DTD/sodipodi-0.dtd"
   xmlns:inkscape="http://www.inkscape.org/namespaces/inkscape"
   version="1.0"
   width="80"
   height="80"
   viewBox="0 0 80 80"
   id="svg2"
   inkscape:version="0.48.2 r9819"
   sodipodi:docname="wca_logo_arrow_t_1.svg"
   inkscape:export-filename="/Users/lgarron/Documents/Throw/wca_logo_arrow_t.png"
   inkscape:export-xdpi="1151.9998"
   inkscape:export-ydpi="1151.9998">
  <sodipodi:namedview
     pagecolor="#ffffff"
     bordercolor="#666666"
     borderopacity="1"
     objecttolerance="10"
     gridtolerance="10"
     guidetolerance="10"
     inkscape:pageopacity="0"
     inkscape:pageshadow="2"
     inkscape:window-width="1280"
     inkscape:window-height="683"
     id="namedview15"
     showgrid="true"
     inkscape:zoom="5.0550099"
     inkscape:cx="47.557897"
     inkscape:cy="60.711465"
     inkscape:window-x="0"
     inkscape:window-y="0"
     inkscape:window-maximized="1"
     inkscape:current-layer="svg2"
     fit-margin-top="0"
     fit-margin-left="0"
     fit-margin-right="0"
     fit-margin-bottom="0">
    <inkscape:grid
       empspacing="5"
       visible="true"
       enabled="true"
       snapvisiblegridlinesonly="true"
       type="xygrid"
       id="grid2992" />
  </sodipodi:namedview>
  <defs
     id="defs4" />
  <metadata
     id="metadata7">
    <rdf:RDF>
      <cc:Work
         rdf:about="">
        <dc:format>image/svg+xml</dc:format>
        <dc:type
           rdf:resource="http://purl.org/dc/dcmitype/StillImage" />
        <dc:title></dc:title>
      </cc:Work>
    </rdf:RDF>
  </metadata>
  <path
     d="m 13.729596,24.795111 c 0,0 26.263089,-15.1143634 26.263089,-15.1143634 0,0 26.164372,15.1286694 26.164372,15.1286694 l -0.04462,30.318064 -26.191422,15.14892 -26.22593,-15.148934 0.03451,-30.332356 0,0 z"
     id="rect2804"
     style="fill:#eeeeec;fill-opacity:1;stroke:none"
     inkscape:connector-curvature="0" />
  <path
     d="M 39.993966,-0.09612554 C 17.859833,-0.09612554 -3.9666824e-6,17.808247 -3.9666824e-6,39.942391 -3.9666824e-6,62.076508 17.773474,79.876484 39.907607,79.876484 c 22.134135,0 40.061948,-17.730957 40.061948,-39.865074 0,-22.134144 -17.807903,-40.11362986 -39.942037,-40.11362986 l -0.03355,0.006149 0,-5.466e-5 0,0 0,0 0,0 0,0 z m -0.003,9.09336654 c 17.105382,0 30.902022,13.839762 30.902022,30.94515 0,17.105361 -13.79664,30.953772 -30.902022,30.953772 -17.105379,0 -30.9882811,-13.848411 -30.9882811,-30.953772 0,-17.105388 13.8829021,-30.94515 30.9882811,-30.94515 l 0,0 z"
     id="path3273"
     style="fill:#eeeeec;fill-opacity:1;stroke:none"
     inkscape:connector-curvature="0" />
  <path
     d="M 65.949943,23.183874 C 63.899415,20.017247 61.459375,17.414849 58.404964,15.136804 53.573236,11.533216 47.751438,9.4231328 41.688637,9.0780522 l -1.364598,-0.077682 -0.02975,-4.5232831 c -0.02495,-3.79622792 -0.0042,-4.53314864 0.129782,-4.58451309 0.251493,-0.0965116 3.605899,0.16451929 5.358349,0.41696895 2.342625,0.33745585 4.392425,0.83043974 6.822993,1.64095694 2.446335,0.8157642 3.877648,1.4213291 6.068102,2.5673071 5.214068,2.7278638 9.766394,6.614045 13.383004,11.424663 1.038002,1.380677 2.461217,3.569044 2.413022,3.71032 -0.03266,0.09572 -7.678242,4.530539 -7.802979,4.526111 -0.04069,-0.0014 -0.363209,-0.449203 -0.716633,-0.995027 l 1.4e-5,0 z"
     id="path2730"
     style="fill:#ddda45"
     inkscape:connector-curvature="0"
     sodipodi:nodetypes="csscscssssccccc" />
  <path
     d="m 70.856922,57.49716 c -2.032688,-1.181068 -3.739958,-2.215682 -3.793941,-2.299144 -0.06491,-0.100365 0.113218,-0.573891 0.525855,-1.397963 4.365337,-8.717896 4.367386,-19.015355 0.0056,-27.726392 -0.340162,-0.679312 -0.595452,-1.295098 -0.567323,-1.36838 0.06199,-0.161581 7.428638,-4.415457 7.678368,-4.43389 0.517881,-0.03825 2.924877,5.466932 3.834092,8.769137 1.05977,3.849055 1.458032,6.818956 1.460423,10.890781 0.0025,4.053023 -0.396253,7.025739 -1.460423,10.890781 -0.881257,3.200748 -3.281435,8.733255 -3.818173,8.801126 -0.09277,0.01175 -1.83178,-0.945002 -3.864454,-2.126056 l 1.4e-5,0 0,0 -4.1e-5,0 z"
     id="path2726"
     style="fill:#e7762a"
     inkscape:connector-curvature="0" />
  <path
     d="M 4.2469878,57.926946 C 2.3881015,54.18748 1.197441,50.545072 0.52891599,46.552774 0.1458074,44.264931 0.01154791,42.518594 0.01154791,39.823224 c 0,-5.273923 0.95686142,-10.197805 2.91811589,-15.016211 0.499674,-1.227596 2.0075193,-4.344471 2.1907356,-4.52849 0.074281,-0.07459 7.4119016,4.042652 7.7836696,4.367537 0.05468,0.04778 -0.182526,0.64086 -0.527134,1.317944 -1.621661,3.18625 -2.687854,6.740481 -3.1665232,10.555812 -0.2054373,1.637472 -0.1759277,5.490599 0.055156,7.202447 0.5054309,3.744112 1.5859892,7.247976 3.1852152,10.328532 0.409168,0.788162 0.490055,1.030199 0.379987,1.137 -0.239306,0.232227 -7.4540092,4.359611 -7.6206218,4.359611 -0.089308,0 -0.5068069,-0.702418 -0.9631607,-1.62046 l 0,0 0,0 z"
     id="path2724"
     style="fill:#e02826"
     inkscape:connector-curvature="0"
     sodipodi:nodetypes="csssccsssscscccc" />
  <path
     d="M 9.5097262,22.022606 C 7.4496988,20.834391 5.6970053,19.795009 5.6148509,19.712845 5.4915038,19.58951 5.5960842,19.357516 6.2151304,18.38114 11.666589,9.7831486 20.463999,3.480379 30.411521,1.045999 33.198285,0.3640229 35.82888,-1.8784387e-4 38.447719,-0.06661045 l 1.194023,-0.03028029 0,4.54865774 0,4.5486578 -1.364599,0.078816 C 32.746922,9.3986187 27.505987,11.14042 22.959737,14.169911 c -2.026765,1.350575 -3.179294,2.290234 -4.813655,3.924591 -1.590071,1.590071 -2.555587,2.766712 -3.828489,4.665625 -0.503103,0.750531 -0.947949,1.377713 -0.988542,1.393741 -0.0406,0.01602 -1.759292,-0.943034 -3.8193248,-2.131249 l 0,-1.3e-5 0,0 0,0 z"
     id="path2722"
     style="fill:#3d9c46"
     inkscape:connector-curvature="0" />
  <path
     d="m 9.3511059,57.817795 c 2.0391781,-1.169836 3.7888151,-2.131058 3.8880871,-2.136086 0.119373,-0.006 0.440395,0.384994 0.947743,1.154395 5.367253,8.139428 14.28409,13.289934 24.008956,13.868047 0.758388,0.04506 1.419321,0.131861 1.468717,0.192873 0.108933,0.134471 0.109575,8.641116 0,8.866606 -0.225817,0.467623 -6.196952,-0.200457 -9.511346,-1.064156 -3.863266,-1.006738 -6.634405,-2.146785 -10.161909,-4.180621 -3.511249,-2.02438 -5.886339,-3.856037 -8.70148,-6.71016 -2.3312983,-2.363557 -5.9225017,-7.208432 -5.7129117,-7.707196 0.036207,-0.08621 1.7342861,-1.113866 3.7734467,-2.283689 l -6.8e-6,1.4e-5 0,0 6.832e-4,-2.7e-5 z"
     id="path2802"
     style="fill:#eeeeec"
     inkscape:connector-curvature="0" />
  <path
     d="m 40.323849,79.886309 c -0.03265,-0.08512 -0.04599,-2.150366 -0.02958,-4.589446 l 0.02979,-4.43467 1.364598,-0.0788 c 5.525766,-0.319132 10.776327,-2.064581 15.321331,-5.093266 2.011202,-1.340217 3.168577,-2.284851 4.807732,-3.924018 1.595322,-1.595331 2.565563,-2.776591 3.830495,-4.663602 0.5031,-0.750531 0.949528,-1.378246 0.992074,-1.394916 0.0934,-0.03661 7.49681,4.228337 7.710112,4.441624 0.124086,0.124087 0.0252,0.346652 -0.573905,1.291532 -3.803087,5.998217 -9.395317,11.059809 -15.723264,14.231328 -5.198612,2.605527 -10.271124,3.934293 -16.391834,4.293899 -1.025296,0.06026 -1.289888,0.04449 -1.337529,-0.07966 l -2.1e-5,0 0,0 z"
     id="path2720"
     style="fill:#304a96"
     inkscape:connector-curvature="0"
     sodipodi:nodetypes="cccsssscccsccccc" />
  <path
     style="fill:#000000;fill-opacity:1;stroke:none"
     d="m 39.991104,14 -22.54034,12.972086 0,0.0268 7.665324,4.422302 0,-0.0268 10.586723,-6.084015 0,38.21941 4.207887,2.438967 4.3955,-2.546174 0,-38.0586 10.452714,6.030412 0,0.08041 7.665324,-4.422302 0,-0.08041 L 39.991104,14 z"
     id="path3854"
     inkscape:connector-curvature="0" />
</svg>
